G75*
G70*
%OFA0B0*%
%FSLAX24Y24*%
%IPPOS*%
%LPD*%
%AMOC8*
5,1,8,0,0,1.08239X$1,22.5*
%
%ADD10C,0.1000*%
%ADD11R,0.0600X0.0240*%
%ADD12R,0.0630X0.0710*%
%ADD13R,0.0710X0.0630*%
%ADD14R,0.0870X0.0240*%
%ADD15R,0.0276X0.0354*%
%ADD16R,0.0945X0.0945*%
%ADD17R,0.0354X0.0276*%
%ADD18C,0.0640*%
%ADD19R,0.0472X0.0472*%
%ADD20C,0.0240*%
%ADD21C,0.0500*%
%ADD22C,0.0160*%
D10*
X005180Y012180D03*
X003410Y012940D03*
X002680Y014680D03*
X003400Y016460D03*
X005180Y017180D03*
X006870Y014680D03*
X012180Y014680D03*
X012910Y012940D03*
X014680Y012180D03*
X016370Y014680D03*
X014680Y017180D03*
X012900Y016460D03*
X014680Y007680D03*
X012900Y006960D03*
X012180Y005180D03*
X012910Y003440D03*
X014680Y002680D03*
X016370Y005180D03*
D11*
X010930Y001930D03*
X010930Y001430D03*
X008430Y001430D03*
X008430Y001930D03*
D12*
X005490Y002930D03*
X004370Y002930D03*
X012120Y001430D03*
X013240Y001430D03*
D13*
X012180Y010620D03*
X011180Y010620D03*
X011180Y011740D03*
X012180Y011740D03*
X009680Y014120D03*
X008680Y014120D03*
X008680Y015240D03*
X009680Y015240D03*
D14*
X009210Y008430D03*
X009210Y007930D03*
X009210Y007430D03*
X009210Y006930D03*
X007150Y006930D03*
X007150Y007430D03*
X007150Y007930D03*
X007150Y008430D03*
D15*
X006924Y009430D03*
X007436Y009430D03*
X008174Y009430D03*
X008686Y009430D03*
D16*
X004930Y008164D03*
X004930Y006196D03*
X004164Y010430D03*
X002196Y010430D03*
D17*
X007180Y003436D03*
X007180Y002924D03*
X008680Y002924D03*
X008680Y003436D03*
D18*
X003000Y004680D02*
X002360Y004680D01*
X002360Y005680D02*
X003000Y005680D01*
X003000Y006680D02*
X002360Y006680D01*
X002360Y007680D02*
X003000Y007680D01*
X003000Y008680D02*
X002360Y008680D01*
D19*
X007180Y005093D03*
X007180Y004267D03*
X008680Y004267D03*
X008680Y005093D03*
D20*
X008767Y005180D01*
X009180Y005180D01*
X009680Y004680D01*
X009680Y002180D01*
X008930Y001430D01*
X008430Y001430D01*
X006430Y001430D01*
X005680Y002180D01*
X005680Y002740D01*
X005490Y002930D01*
X005680Y003120D01*
X005680Y004180D01*
X005180Y004680D01*
X002680Y004680D01*
X002680Y005680D02*
X003180Y005680D01*
X003680Y005180D01*
X005930Y005180D01*
X006930Y006180D01*
X007180Y006180D01*
X007430Y006180D01*
X007930Y006680D01*
X007930Y007680D01*
X007680Y007930D01*
X007150Y007930D01*
X007150Y007430D02*
X006430Y007430D01*
X006180Y007680D01*
X006180Y011680D01*
X008620Y014120D01*
X008680Y014120D01*
X009680Y014120D02*
X009680Y010180D01*
X009929Y009931D01*
X010232Y009799D01*
X010180Y009680D01*
X010299Y009628D01*
X010431Y009931D01*
X010128Y009799D01*
X010180Y009680D01*
X010061Y009628D01*
X009929Y009931D01*
X010180Y009680D01*
X010061Y009732D01*
X009929Y009429D01*
X010232Y009561D01*
X010180Y009680D01*
X010431Y009931D01*
X011120Y010620D01*
X011180Y010620D01*
X011180Y009680D02*
X011680Y009680D01*
X012180Y010180D01*
X012180Y010620D01*
X011180Y009680D02*
X010180Y008680D01*
X010180Y007180D01*
X009930Y006930D01*
X009210Y006930D01*
X009210Y007430D02*
X008680Y007430D01*
X008430Y007180D01*
X008430Y006430D01*
X008680Y006180D01*
X008680Y005093D01*
X008680Y004267D02*
X008680Y003436D01*
X008680Y002924D02*
X008680Y002180D01*
X008430Y001930D01*
X007680Y001930D01*
X007180Y002430D01*
X007022Y002272D01*
X006758Y002076D01*
X006680Y002180D01*
X006695Y002309D01*
X007022Y002272D01*
X006930Y002180D01*
X006680Y002180D01*
X007180Y002430D02*
X007180Y002924D01*
X007180Y003436D02*
X007180Y004267D01*
X007180Y005093D02*
X007180Y006180D01*
X007150Y006930D02*
X006180Y006930D01*
X004946Y008164D01*
X004930Y008164D01*
X004414Y008680D01*
X002680Y008680D01*
X001930Y009430D02*
X001680Y009180D01*
X001680Y007930D01*
X001930Y007680D01*
X002680Y007680D01*
X003680Y007680D01*
X004930Y006430D01*
X004930Y006196D01*
X005576Y006196D01*
X005888Y006303D01*
X005930Y006180D01*
X005877Y006061D01*
X005576Y006196D01*
X005914Y006196D01*
X005930Y006180D01*
X004930Y008164D02*
X004930Y008180D01*
X005430Y008680D01*
X005430Y009326D01*
X005309Y009632D01*
X005430Y009680D01*
X005551Y009632D01*
X005430Y009326D01*
X005430Y009680D01*
X004164Y010164D02*
X003430Y009430D01*
X001930Y009430D01*
X001180Y009680D02*
X001180Y006680D01*
X002680Y006680D01*
X001180Y006680D02*
X001180Y004180D01*
X001680Y003680D01*
X003680Y003680D01*
X004370Y002990D01*
X004370Y002930D01*
X008430Y007930D02*
X007930Y008430D01*
X007930Y009430D01*
X008174Y009430D01*
X007930Y009430D02*
X007436Y009430D01*
X006930Y009436D02*
X006924Y009430D01*
X006930Y009436D02*
X006930Y010326D01*
X006809Y010632D01*
X006930Y010680D01*
X007051Y010632D01*
X006930Y010326D01*
X006930Y010680D01*
X008686Y009430D02*
X008930Y009430D01*
X009430Y008930D01*
X009929Y009429D01*
X010180Y009680D01*
X009430Y008930D02*
X009210Y008710D01*
X009210Y008430D01*
X009210Y007930D02*
X008430Y007930D01*
X007930Y008430D02*
X007150Y008430D01*
X004164Y010164D02*
X004164Y010430D01*
X002196Y010430D02*
X001930Y010430D01*
X001180Y009680D01*
X003410Y012940D02*
X005180Y014710D01*
X005180Y015180D01*
X005680Y015680D01*
X008180Y015680D01*
X008620Y015240D01*
X008680Y015240D01*
X009680Y015240D02*
X009680Y015680D01*
X009180Y016180D01*
X003680Y016180D01*
X003400Y016460D01*
X011180Y015680D02*
X011180Y011740D01*
X012180Y011740D02*
X012180Y012210D01*
X012910Y012940D01*
X011180Y015680D02*
X011930Y016430D01*
X012870Y016430D01*
X012900Y016460D01*
X012900Y006960D02*
X011960Y006960D01*
X011180Y006180D01*
X011180Y001930D01*
X010930Y001930D01*
X010930Y001430D02*
X012120Y001430D01*
X013240Y001430D02*
X013240Y003110D01*
X012910Y003440D01*
D21*
X010180Y006180D03*
X010180Y009680D03*
X006930Y010680D03*
X005430Y009680D03*
X005930Y006180D03*
X006680Y002180D03*
X003680Y001680D03*
X001680Y012680D03*
X008180Y017680D03*
X016180Y010680D03*
X017180Y017680D03*
X016180Y001680D03*
D22*
X000360Y000360D02*
X000360Y019500D01*
X019500Y019500D01*
X019500Y000360D01*
X000360Y000360D01*
X000360Y000497D02*
X019500Y000497D01*
X019500Y000656D02*
X000360Y000656D01*
X000360Y000814D02*
X019500Y000814D01*
X019500Y000973D02*
X013772Y000973D01*
X013758Y000939D02*
X013795Y001027D01*
X013795Y001833D01*
X013758Y001921D01*
X013691Y001988D01*
X013603Y002025D01*
X013600Y002025D01*
X013600Y003172D01*
X013650Y003293D01*
X013650Y003587D01*
X013537Y003859D01*
X013329Y004067D01*
X013057Y004180D01*
X012763Y004180D01*
X012491Y004067D01*
X012283Y003859D01*
X012170Y003587D01*
X012170Y003293D01*
X012283Y003021D01*
X012491Y002813D01*
X012763Y002700D01*
X012880Y002700D01*
X012880Y002025D01*
X012877Y002025D01*
X012789Y001988D01*
X012721Y001921D01*
X012685Y001833D01*
X012685Y001027D01*
X012721Y000939D01*
X012789Y000872D01*
X012877Y000835D01*
X013603Y000835D01*
X013691Y000872D01*
X013758Y000939D01*
X013795Y001131D02*
X017277Y001131D01*
X017249Y001139D02*
X017533Y001063D01*
X017827Y001063D01*
X018111Y001139D01*
X018366Y001286D01*
X018574Y001494D01*
X018721Y001749D01*
X018797Y002033D01*
X018797Y002327D01*
X018721Y002611D01*
X018574Y002866D01*
X018366Y003074D01*
X018111Y003221D01*
X017827Y003297D01*
X017533Y003297D01*
X017249Y003221D01*
X016994Y003074D01*
X016786Y002866D01*
X016639Y002611D01*
X016563Y002327D01*
X016563Y002033D01*
X016639Y001749D01*
X016786Y001494D01*
X016994Y001286D01*
X017249Y001139D01*
X016990Y001290D02*
X013795Y001290D01*
X013795Y001448D02*
X016832Y001448D01*
X016721Y001607D02*
X013795Y001607D01*
X013795Y001765D02*
X016634Y001765D01*
X016592Y001924D02*
X013756Y001924D01*
X013600Y002082D02*
X014231Y002082D01*
X014261Y002053D02*
X014533Y001940D01*
X014827Y001940D01*
X015099Y002053D01*
X015307Y002261D01*
X015420Y002533D01*
X015420Y002827D01*
X015307Y003099D01*
X015099Y003307D01*
X014827Y003420D01*
X014533Y003420D01*
X014261Y003307D01*
X014053Y003099D01*
X013940Y002827D01*
X013940Y002533D01*
X014053Y002261D01*
X014261Y002053D01*
X014073Y002241D02*
X013600Y002241D01*
X013600Y002399D02*
X013995Y002399D01*
X013940Y002558D02*
X013600Y002558D01*
X013600Y002716D02*
X013940Y002716D01*
X013960Y002875D02*
X013600Y002875D01*
X013600Y003033D02*
X014025Y003033D01*
X014145Y003192D02*
X013608Y003192D01*
X013650Y003350D02*
X014364Y003350D01*
X014996Y003350D02*
X019500Y003350D01*
X019500Y003192D02*
X018163Y003192D01*
X018407Y003033D02*
X019500Y003033D01*
X019500Y002875D02*
X018566Y002875D01*
X018661Y002716D02*
X019500Y002716D01*
X019500Y002558D02*
X018736Y002558D01*
X018778Y002399D02*
X019500Y002399D01*
X019500Y002241D02*
X018797Y002241D01*
X018797Y002082D02*
X019500Y002082D01*
X019500Y001924D02*
X018768Y001924D01*
X018726Y001765D02*
X019500Y001765D01*
X019500Y001607D02*
X018639Y001607D01*
X018528Y001448D02*
X019500Y001448D01*
X019500Y001290D02*
X018370Y001290D01*
X018083Y001131D02*
X019500Y001131D01*
X019500Y003509D02*
X013650Y003509D01*
X013617Y003667D02*
X019500Y003667D01*
X019500Y003826D02*
X013551Y003826D01*
X013413Y003984D02*
X019500Y003984D01*
X019500Y004143D02*
X013148Y004143D01*
X012672Y004143D02*
X011540Y004143D01*
X011540Y004301D02*
X019500Y004301D01*
X019500Y004460D02*
X012374Y004460D01*
X012327Y004440D02*
X012599Y004553D01*
X012807Y004761D01*
X012920Y005033D01*
X012920Y005327D01*
X012807Y005599D01*
X012599Y005807D01*
X012327Y005920D01*
X012033Y005920D01*
X011761Y005807D01*
X011553Y005599D01*
X011540Y005569D01*
X011540Y005569D01*
X011540Y006031D01*
X012109Y006600D01*
X012248Y006600D01*
X012273Y006541D01*
X012481Y006333D01*
X012753Y006220D01*
X013047Y006220D01*
X013319Y006333D01*
X013527Y006541D01*
X013640Y006813D01*
X013640Y007107D01*
X013527Y007379D01*
X013319Y007587D01*
X013047Y007700D01*
X012753Y007700D01*
X012675Y007668D01*
X012721Y007749D01*
X012797Y008033D01*
X012797Y008327D01*
X012721Y008611D01*
X012574Y008866D01*
X012366Y009074D01*
X012111Y009221D01*
X011827Y009297D01*
X011533Y009297D01*
X011249Y009221D01*
X011206Y009196D01*
X011329Y009320D01*
X011752Y009320D01*
X011884Y009375D01*
X012384Y009875D01*
X012485Y009976D01*
X012522Y010065D01*
X012583Y010065D01*
X012671Y010102D01*
X012738Y010169D01*
X012775Y010257D01*
X012775Y010983D01*
X012738Y011071D01*
X012671Y011139D01*
X012583Y011175D01*
X011777Y011175D01*
X011689Y011139D01*
X011635Y011085D01*
X011604Y011103D01*
X011559Y011115D01*
X011257Y011115D01*
X011257Y010698D01*
X011103Y010698D01*
X011103Y011115D01*
X010801Y011115D01*
X010756Y011103D01*
X010715Y011079D01*
X010681Y011046D01*
X010657Y011005D01*
X010645Y010959D01*
X010645Y010698D01*
X011103Y010698D01*
X011103Y010543D01*
X011257Y010543D01*
X011257Y010125D01*
X011559Y010125D01*
X011604Y010137D01*
X011635Y010155D01*
X011641Y010150D01*
X011531Y010040D01*
X011108Y010040D01*
X010976Y009985D01*
X010875Y009884D01*
X010875Y009884D01*
X009875Y008884D01*
X009820Y008752D01*
X009820Y008592D01*
X009813Y008619D01*
X009789Y008661D01*
X009756Y008694D01*
X009714Y008718D01*
X009669Y008730D01*
X009210Y008730D01*
X009210Y008430D01*
X009210Y008430D01*
X009210Y008430D01*
X008595Y008430D01*
X008595Y008574D01*
X008607Y008619D01*
X008631Y008661D01*
X008664Y008694D01*
X008706Y008718D01*
X008751Y008730D01*
X009210Y008730D01*
X009210Y008430D01*
X008595Y008430D01*
X008595Y008290D01*
X008579Y008290D01*
X008290Y008579D01*
X008290Y009013D01*
X008360Y009013D01*
X008448Y009049D01*
X008483Y009084D01*
X008524Y009073D01*
X008686Y009073D01*
X008847Y009073D01*
X008893Y009085D01*
X008934Y009109D01*
X008968Y009142D01*
X008991Y009183D01*
X009004Y009229D01*
X009004Y009430D01*
X009004Y009631D01*
X008991Y009677D01*
X008968Y009718D01*
X008934Y009751D01*
X008893Y009775D01*
X008847Y009787D01*
X008686Y009787D01*
X008686Y009430D01*
X009004Y009430D01*
X008686Y009430D01*
X008686Y009430D01*
X008686Y009430D01*
X008686Y009073D01*
X008686Y009430D01*
X008686Y009430D01*
X008686Y009787D01*
X008524Y009787D01*
X008483Y009776D01*
X008448Y009811D01*
X008360Y009847D01*
X007989Y009847D01*
X007900Y009811D01*
X007880Y009790D01*
X007730Y009790D01*
X007710Y009811D01*
X007621Y009847D01*
X007290Y009847D01*
X007290Y010257D01*
X007384Y010496D01*
X007420Y010583D01*
X007420Y010777D01*
X007362Y010918D01*
X007494Y010786D01*
X007749Y010639D01*
X008033Y010563D01*
X008327Y010563D01*
X008611Y010639D01*
X008866Y010786D01*
X009074Y010994D01*
X009221Y011249D01*
X009297Y011533D01*
X009297Y011827D01*
X009221Y012111D01*
X009074Y012366D01*
X008866Y012574D01*
X008611Y012721D01*
X008327Y012797D01*
X008033Y012797D01*
X007749Y012721D01*
X007706Y012696D01*
X008574Y013565D01*
X009083Y013565D01*
X009171Y013602D01*
X009225Y013655D01*
X009256Y013637D01*
X009301Y013625D01*
X009603Y013625D01*
X009603Y014043D01*
X009757Y014043D01*
X009757Y013625D01*
X010059Y013625D01*
X010104Y013637D01*
X010145Y013661D01*
X010179Y013695D01*
X010203Y013736D01*
X010215Y013781D01*
X010215Y014043D01*
X009757Y014043D01*
X009757Y014198D01*
X009603Y014198D01*
X009603Y014615D01*
X009301Y014615D01*
X009256Y014603D01*
X009225Y014585D01*
X009171Y014639D01*
X009083Y014675D01*
X008277Y014675D01*
X008189Y014639D01*
X008122Y014571D01*
X008085Y014483D01*
X008085Y014094D01*
X005875Y011884D01*
X005820Y011752D01*
X005820Y009983D01*
X005708Y010095D01*
X005527Y010170D01*
X005333Y010170D01*
X005152Y010095D01*
X005015Y009958D01*
X004940Y009777D01*
X004940Y009583D01*
X004976Y009496D01*
X004989Y009463D01*
X005070Y009257D01*
X005070Y008877D01*
X004727Y008877D01*
X004618Y008985D01*
X004486Y009040D01*
X003432Y009040D01*
X003317Y009155D01*
X003111Y009240D01*
X002249Y009240D01*
X002043Y009155D01*
X001885Y008997D01*
X001800Y008791D01*
X001800Y008569D01*
X001885Y008363D01*
X002043Y008205D01*
X002182Y008148D01*
X002168Y008143D01*
X002098Y008108D01*
X002034Y008061D01*
X001979Y008006D01*
X001932Y007942D01*
X001897Y007872D01*
X001872Y007797D01*
X001860Y007719D01*
X001860Y007700D01*
X002660Y007700D01*
X002660Y007660D01*
X001860Y007660D01*
X001860Y007641D01*
X001872Y007563D01*
X001897Y007488D01*
X001932Y007418D01*
X001979Y007354D01*
X002034Y007299D01*
X002098Y007252D01*
X002168Y007217D01*
X002182Y007212D01*
X002043Y007155D01*
X001928Y007040D01*
X001540Y007040D01*
X001540Y009531D01*
X001727Y009718D01*
X002716Y009718D01*
X002804Y009754D01*
X002872Y009822D01*
X002908Y009910D01*
X002908Y010950D01*
X002872Y011038D01*
X002804Y011106D01*
X002716Y011142D01*
X001676Y011142D01*
X001587Y011106D01*
X001520Y011038D01*
X001483Y010950D01*
X001483Y010492D01*
X000976Y009985D01*
X000875Y009884D01*
X000820Y009752D01*
X000820Y004108D01*
X000875Y003976D01*
X000976Y003875D01*
X001476Y003375D01*
X001608Y003320D01*
X003531Y003320D01*
X003815Y003036D01*
X003815Y002527D01*
X003852Y002439D01*
X003919Y002372D01*
X004007Y002335D01*
X004733Y002335D01*
X004821Y002372D01*
X004889Y002439D01*
X004925Y002527D01*
X004925Y003333D01*
X004889Y003421D01*
X004821Y003488D01*
X004733Y003525D01*
X004344Y003525D01*
X003985Y003884D01*
X003884Y003985D01*
X003752Y004040D01*
X001829Y004040D01*
X001540Y004329D01*
X001540Y006320D01*
X001928Y006320D01*
X002043Y006205D01*
X002104Y006180D01*
X002043Y006155D01*
X001885Y005997D01*
X001800Y005791D01*
X001800Y005569D01*
X001540Y005569D01*
X001540Y005411D02*
X001865Y005411D01*
X001885Y005363D02*
X002043Y005205D01*
X002104Y005180D01*
X002043Y005155D01*
X001885Y004997D01*
X001800Y004791D01*
X001800Y004569D01*
X001885Y004363D01*
X002043Y004205D01*
X002249Y004120D01*
X003111Y004120D01*
X003317Y004205D01*
X003432Y004320D01*
X005031Y004320D01*
X005320Y004031D01*
X005320Y003525D01*
X005127Y003525D01*
X005039Y003488D01*
X004971Y003421D01*
X004935Y003333D01*
X004935Y002527D01*
X004971Y002439D01*
X005039Y002372D01*
X005127Y002335D01*
X005320Y002335D01*
X005320Y002108D01*
X005375Y001976D01*
X006226Y001125D01*
X006358Y001070D01*
X009002Y001070D01*
X009134Y001125D01*
X009884Y001875D01*
X009985Y001976D01*
X010040Y002108D01*
X010040Y004752D01*
X009985Y004884D01*
X009485Y005384D01*
X009384Y005485D01*
X009252Y005540D01*
X009040Y005540D01*
X009040Y006252D01*
X008985Y006384D01*
X008884Y006485D01*
X008799Y006570D01*
X010002Y006570D01*
X010134Y006625D01*
X010485Y006976D01*
X010540Y007108D01*
X010540Y008531D01*
X010664Y008654D01*
X010639Y008611D01*
X010563Y008327D01*
X010563Y008033D01*
X010639Y007749D01*
X010786Y007494D01*
X010994Y007286D01*
X011249Y007139D01*
X011533Y007063D01*
X011553Y007063D01*
X010976Y006485D01*
X010875Y006384D01*
X010820Y006252D01*
X010820Y002290D01*
X010582Y002290D01*
X010494Y002253D01*
X010427Y002186D01*
X010390Y002098D01*
X010390Y001762D01*
X010424Y001680D01*
X010390Y001598D01*
X010390Y001262D01*
X010427Y001174D01*
X010494Y001107D01*
X010582Y001070D01*
X011565Y001070D01*
X011565Y001027D01*
X011602Y000939D01*
X011669Y000872D01*
X011757Y000835D01*
X012483Y000835D01*
X012571Y000872D01*
X012639Y000939D01*
X012675Y001027D01*
X012675Y001833D01*
X012639Y001921D01*
X012571Y001988D01*
X012483Y002025D01*
X011757Y002025D01*
X011669Y001988D01*
X011602Y001921D01*
X011565Y001833D01*
X011565Y001790D01*
X011512Y001790D01*
X011540Y001858D01*
X011540Y004791D01*
X011553Y004761D01*
X011761Y004553D01*
X012033Y004440D01*
X012327Y004440D01*
X012665Y004618D02*
X015985Y004618D01*
X015991Y004613D02*
X016069Y004569D01*
X016151Y004535D01*
X016237Y004512D01*
X016325Y004500D01*
X016332Y004500D01*
X016332Y005142D01*
X016408Y005142D01*
X016408Y005218D01*
X017050Y005218D01*
X017050Y005225D01*
X017038Y005313D01*
X017015Y005399D01*
X016981Y005481D01*
X016937Y005559D01*
X016882Y005629D01*
X016819Y005692D01*
X016749Y005747D01*
X016671Y005791D01*
X016589Y005825D01*
X016503Y005848D01*
X016415Y005860D01*
X016408Y005860D01*
X016408Y005218D01*
X016332Y005218D01*
X016332Y005142D01*
X015690Y005142D01*
X015690Y005135D01*
X015702Y005047D01*
X015725Y004961D01*
X015759Y004879D01*
X015803Y004801D01*
X015858Y004731D01*
X015921Y004668D01*
X015991Y004613D01*
X015822Y004777D02*
X012814Y004777D01*
X012879Y004935D02*
X015735Y004935D01*
X015696Y005094D02*
X012920Y005094D01*
X012920Y005252D02*
X015694Y005252D01*
X015690Y005225D02*
X015690Y005218D01*
X016332Y005218D01*
X016332Y005860D01*
X016325Y005860D01*
X016237Y005848D01*
X016151Y005825D01*
X016069Y005791D01*
X015991Y005747D01*
X015921Y005692D01*
X015858Y005629D01*
X015803Y005559D01*
X015759Y005481D01*
X015725Y005399D01*
X015702Y005313D01*
X015690Y005225D01*
X015729Y005411D02*
X012885Y005411D01*
X012820Y005569D02*
X015811Y005569D01*
X015967Y005728D02*
X012679Y005728D01*
X012409Y005886D02*
X019500Y005886D01*
X019500Y005728D02*
X016773Y005728D01*
X016929Y005569D02*
X019500Y005569D01*
X019500Y005411D02*
X017011Y005411D01*
X017046Y005252D02*
X019500Y005252D01*
X019500Y005094D02*
X017044Y005094D01*
X017050Y005135D02*
X017050Y005142D01*
X016408Y005142D01*
X016408Y004500D01*
X016415Y004500D01*
X016503Y004512D01*
X016589Y004535D01*
X016671Y004569D01*
X016749Y004613D01*
X016819Y004668D01*
X016882Y004731D01*
X016937Y004801D01*
X016981Y004879D01*
X017015Y004961D01*
X017038Y005047D01*
X017050Y005135D01*
X017005Y004935D02*
X019500Y004935D01*
X019500Y004777D02*
X016918Y004777D01*
X016755Y004618D02*
X019500Y004618D01*
X019500Y006045D02*
X011554Y006045D01*
X011540Y005886D02*
X011951Y005886D01*
X011681Y005728D02*
X011540Y005728D01*
X011712Y006203D02*
X019500Y006203D01*
X019500Y006362D02*
X013348Y006362D01*
X013507Y006520D02*
X019500Y006520D01*
X019500Y006679D02*
X013584Y006679D01*
X013640Y006837D02*
X019500Y006837D01*
X019500Y006996D02*
X014961Y006996D01*
X014827Y006940D02*
X015099Y007053D01*
X015307Y007261D01*
X015420Y007533D01*
X015420Y007827D01*
X015307Y008099D01*
X015099Y008307D01*
X014827Y008420D01*
X014533Y008420D01*
X014261Y008307D01*
X014053Y008099D01*
X013940Y007827D01*
X013940Y007533D01*
X014053Y007261D01*
X014261Y007053D01*
X014533Y006940D01*
X014827Y006940D01*
X015201Y007154D02*
X019500Y007154D01*
X019500Y007313D02*
X015329Y007313D01*
X015394Y007471D02*
X019500Y007471D01*
X019500Y007630D02*
X015420Y007630D01*
X015420Y007788D02*
X019500Y007788D01*
X019500Y007947D02*
X015371Y007947D01*
X015302Y008105D02*
X019500Y008105D01*
X019500Y008264D02*
X015143Y008264D01*
X014217Y008264D02*
X012797Y008264D01*
X012797Y008105D02*
X014058Y008105D01*
X013989Y007947D02*
X012774Y007947D01*
X012732Y007788D02*
X013940Y007788D01*
X013940Y007630D02*
X013217Y007630D01*
X013436Y007471D02*
X013966Y007471D01*
X014031Y007313D02*
X013555Y007313D01*
X013621Y007154D02*
X014159Y007154D01*
X014399Y006996D02*
X013640Y006996D01*
X012452Y006362D02*
X011871Y006362D01*
X012029Y006520D02*
X012293Y006520D01*
X011486Y006996D02*
X010493Y006996D01*
X010540Y007154D02*
X011222Y007154D01*
X010967Y007313D02*
X010540Y007313D01*
X010540Y007471D02*
X010809Y007471D01*
X010707Y007630D02*
X010540Y007630D01*
X010540Y007788D02*
X010628Y007788D01*
X010586Y007947D02*
X010540Y007947D01*
X010540Y008105D02*
X010563Y008105D01*
X010563Y008264D02*
X010540Y008264D01*
X010540Y008422D02*
X010588Y008422D01*
X010590Y008581D02*
X010630Y008581D01*
X010047Y009056D02*
X008454Y009056D01*
X008290Y008898D02*
X009888Y008898D01*
X009820Y008739D02*
X008290Y008739D01*
X008290Y008581D02*
X008597Y008581D01*
X008595Y008422D02*
X008447Y008422D01*
X009210Y008581D02*
X009210Y008581D01*
X009000Y009215D02*
X010205Y009215D01*
X010364Y009373D02*
X009004Y009373D01*
X009004Y009532D02*
X010522Y009532D01*
X010681Y009690D02*
X008984Y009690D01*
X008686Y009690D02*
X008686Y009690D01*
X008686Y009532D02*
X008686Y009532D01*
X008686Y009373D02*
X008686Y009373D01*
X008686Y009215D02*
X008686Y009215D01*
X007379Y010483D02*
X010645Y010483D01*
X010645Y010543D02*
X010645Y010281D01*
X010657Y010236D01*
X010681Y010195D01*
X010715Y010161D01*
X010756Y010137D01*
X010801Y010125D01*
X011103Y010125D01*
X011103Y010543D01*
X010645Y010543D01*
X010645Y010800D02*
X008880Y010800D01*
X009038Y010958D02*
X010645Y010958D01*
X010777Y011185D02*
X010689Y011221D01*
X010622Y011289D01*
X010585Y011377D01*
X010585Y012103D01*
X010622Y012191D01*
X010689Y012258D01*
X010777Y012295D01*
X010820Y012295D01*
X010820Y015752D01*
X010875Y015884D01*
X011553Y016563D01*
X011533Y016563D01*
X011249Y016639D01*
X010994Y016786D01*
X010786Y016994D01*
X010639Y017249D01*
X010563Y017533D01*
X010563Y017827D01*
X010639Y018111D01*
X010786Y018366D01*
X010994Y018574D01*
X011249Y018721D01*
X011533Y018797D01*
X011827Y018797D01*
X012111Y018721D01*
X012366Y018574D01*
X012574Y018366D01*
X012721Y018111D01*
X012797Y017827D01*
X012797Y017533D01*
X012721Y017249D01*
X012675Y017168D01*
X012753Y017200D01*
X013047Y017200D01*
X013319Y017087D01*
X013527Y016879D01*
X013640Y016607D01*
X013640Y016313D01*
X013527Y016041D01*
X013319Y015833D01*
X013047Y015720D01*
X012753Y015720D01*
X012481Y015833D01*
X012273Y016041D01*
X012261Y016070D01*
X012079Y016070D01*
X011540Y015531D01*
X011540Y015069D01*
X011553Y015099D01*
X011761Y015307D01*
X012033Y015420D01*
X012327Y015420D01*
X012599Y015307D01*
X012807Y015099D01*
X012920Y014827D01*
X012920Y014533D01*
X012807Y014261D01*
X012599Y014053D01*
X012327Y013940D01*
X012033Y013940D01*
X011761Y014053D01*
X011553Y014261D01*
X011540Y014291D01*
X011540Y012295D01*
X011583Y012295D01*
X011671Y012258D01*
X011680Y012249D01*
X011689Y012258D01*
X011777Y012295D01*
X011825Y012295D01*
X011875Y012414D01*
X012195Y012734D01*
X012170Y012793D01*
X012170Y013087D01*
X012283Y013359D01*
X012491Y013567D01*
X012763Y013680D01*
X013057Y013680D01*
X013329Y013567D01*
X013537Y013359D01*
X013650Y013087D01*
X013650Y012793D01*
X013537Y012521D01*
X013329Y012313D01*
X013057Y012200D01*
X012763Y012200D01*
X012705Y012224D01*
X012738Y012191D01*
X012775Y012103D01*
X012775Y011377D01*
X012738Y011289D01*
X012671Y011221D01*
X012583Y011185D01*
X011777Y011185D01*
X011689Y011221D01*
X011680Y011231D01*
X011671Y011221D01*
X011583Y011185D01*
X010777Y011185D01*
X010636Y011275D02*
X009228Y011275D01*
X009271Y011434D02*
X010585Y011434D01*
X010585Y011592D02*
X009297Y011592D01*
X009297Y011751D02*
X010585Y011751D01*
X010585Y011909D02*
X009276Y011909D01*
X009233Y012068D02*
X010585Y012068D01*
X010657Y012226D02*
X009155Y012226D01*
X009056Y012385D02*
X010820Y012385D01*
X010820Y012543D02*
X008897Y012543D01*
X008646Y012702D02*
X010820Y012702D01*
X010820Y012860D02*
X007869Y012860D01*
X007714Y012702D02*
X007711Y012702D01*
X008028Y013019D02*
X010820Y013019D01*
X010820Y013177D02*
X008186Y013177D01*
X008345Y013336D02*
X010820Y013336D01*
X010820Y013494D02*
X008503Y013494D01*
X007960Y013970D02*
X004949Y013970D01*
X005107Y014128D02*
X006472Y014128D01*
X006491Y014113D02*
X006569Y014069D01*
X006651Y014035D01*
X006737Y014012D01*
X006825Y014000D01*
X006832Y014000D01*
X006832Y014642D01*
X006908Y014642D01*
X006908Y014718D01*
X007550Y014718D01*
X007550Y014725D01*
X007538Y014813D01*
X007515Y014899D01*
X007481Y014981D01*
X007437Y015059D01*
X007382Y015129D01*
X007319Y015192D01*
X007249Y015247D01*
X007171Y015291D01*
X007102Y015320D01*
X008031Y015320D01*
X008085Y015266D01*
X008085Y014877D01*
X008122Y014789D01*
X008189Y014721D01*
X008277Y014685D01*
X009083Y014685D01*
X009171Y014721D01*
X009180Y014731D01*
X009189Y014721D01*
X009277Y014685D01*
X010083Y014685D01*
X010171Y014721D01*
X010238Y014789D01*
X010275Y014877D01*
X010275Y015603D01*
X010238Y015691D01*
X010171Y015758D01*
X010083Y015795D01*
X010022Y015795D01*
X009985Y015884D01*
X009884Y015985D01*
X009384Y016485D01*
X009252Y016540D01*
X005569Y016540D01*
X005599Y016553D01*
X005807Y016761D01*
X005920Y017033D01*
X005920Y017327D01*
X005807Y017599D01*
X005599Y017807D01*
X005327Y017920D01*
X005033Y017920D01*
X004761Y017807D01*
X004553Y017599D01*
X004440Y017327D01*
X004440Y017033D01*
X004553Y016761D01*
X004761Y016553D01*
X004791Y016540D01*
X004140Y016540D01*
X004140Y016607D01*
X004027Y016879D01*
X003819Y017087D01*
X003547Y017200D01*
X003253Y017200D01*
X003175Y017168D01*
X003221Y017249D01*
X003297Y017533D01*
X003297Y017827D01*
X003221Y018111D01*
X003074Y018366D01*
X002866Y018574D01*
X002611Y018721D01*
X002327Y018797D01*
X002033Y018797D01*
X001749Y018721D01*
X001494Y018574D01*
X001286Y018366D01*
X001139Y018111D01*
X001063Y017827D01*
X001063Y017533D01*
X001139Y017249D01*
X001286Y016994D01*
X001494Y016786D01*
X001749Y016639D01*
X002033Y016563D01*
X002327Y016563D01*
X002611Y016639D01*
X002692Y016685D01*
X002660Y016607D01*
X002660Y016313D01*
X002773Y016041D01*
X002981Y015833D01*
X003253Y015720D01*
X003547Y015720D01*
X003789Y015820D01*
X005311Y015820D01*
X004875Y015384D01*
X004820Y015252D01*
X004820Y014859D01*
X003616Y013655D01*
X003557Y013680D01*
X003263Y013680D01*
X002991Y013567D01*
X002783Y013359D01*
X002670Y013087D01*
X002670Y012793D01*
X002783Y012521D01*
X002991Y012313D01*
X003263Y012200D01*
X003557Y012200D01*
X003829Y012313D01*
X004037Y012521D01*
X004150Y012793D01*
X004150Y013087D01*
X004125Y013146D01*
X005384Y014405D01*
X005485Y014506D01*
X005540Y014638D01*
X005540Y015031D01*
X005829Y015320D01*
X006638Y015320D01*
X006569Y015291D01*
X006491Y015247D01*
X006421Y015192D01*
X006358Y015129D01*
X006303Y015059D01*
X006259Y014981D01*
X006225Y014899D01*
X006202Y014813D01*
X006190Y014725D01*
X006190Y014718D01*
X006832Y014718D01*
X006832Y014642D01*
X006190Y014642D01*
X006190Y014635D01*
X006202Y014547D01*
X006225Y014461D01*
X006259Y014379D01*
X006303Y014301D01*
X006358Y014231D01*
X006421Y014168D01*
X006491Y014113D01*
X006315Y014287D02*
X005266Y014287D01*
X005424Y014445D02*
X006231Y014445D01*
X006194Y014604D02*
X005526Y014604D01*
X005540Y014762D02*
X006195Y014762D01*
X006234Y014921D02*
X005540Y014921D01*
X005588Y015079D02*
X006319Y015079D01*
X006480Y015238D02*
X005747Y015238D01*
X005204Y015713D02*
X000360Y015713D01*
X000360Y015555D02*
X005045Y015555D01*
X004887Y015396D02*
X002885Y015396D01*
X002827Y015420D02*
X002533Y015420D01*
X002261Y015307D01*
X002053Y015099D01*
X001940Y014827D01*
X001940Y014533D01*
X002053Y014261D01*
X002261Y014053D01*
X002533Y013940D01*
X002827Y013940D01*
X003099Y014053D01*
X003307Y014261D01*
X003420Y014533D01*
X003420Y014827D01*
X003307Y015099D01*
X003099Y015307D01*
X002827Y015420D01*
X003169Y015238D02*
X004820Y015238D01*
X004820Y015079D02*
X003316Y015079D01*
X003381Y014921D02*
X004820Y014921D01*
X004723Y014762D02*
X003420Y014762D01*
X003420Y014604D02*
X004564Y014604D01*
X004406Y014445D02*
X003384Y014445D01*
X003318Y014287D02*
X004247Y014287D01*
X004089Y014128D02*
X003175Y014128D01*
X002898Y013970D02*
X003930Y013970D01*
X003772Y013811D02*
X000360Y013811D01*
X000360Y013653D02*
X003196Y013653D01*
X002918Y013494D02*
X000360Y013494D01*
X000360Y013336D02*
X002773Y013336D01*
X002707Y013177D02*
X000360Y013177D01*
X000360Y013019D02*
X002670Y013019D01*
X002670Y012860D02*
X000360Y012860D01*
X000360Y012702D02*
X002708Y012702D01*
X002773Y012543D02*
X000360Y012543D01*
X000360Y012385D02*
X002919Y012385D01*
X003200Y012226D02*
X000360Y012226D01*
X000360Y012068D02*
X004440Y012068D01*
X004440Y012033D02*
X004553Y011761D01*
X004761Y011553D01*
X005033Y011440D01*
X005327Y011440D01*
X005599Y011553D01*
X005807Y011761D01*
X005920Y012033D01*
X005920Y012327D01*
X005807Y012599D01*
X005599Y012807D01*
X005327Y012920D01*
X005033Y012920D01*
X004761Y012807D01*
X004553Y012599D01*
X004440Y012327D01*
X004440Y012033D01*
X004491Y011909D02*
X000360Y011909D01*
X000360Y011751D02*
X004563Y011751D01*
X004721Y011592D02*
X000360Y011592D01*
X000360Y011434D02*
X005820Y011434D01*
X005820Y011592D02*
X005639Y011592D01*
X005797Y011751D02*
X005820Y011751D01*
X005869Y011909D02*
X005900Y011909D01*
X005920Y012068D02*
X006058Y012068D01*
X005920Y012226D02*
X006217Y012226D01*
X006375Y012385D02*
X005896Y012385D01*
X005831Y012543D02*
X006534Y012543D01*
X006692Y012702D02*
X005705Y012702D01*
X005472Y012860D02*
X006851Y012860D01*
X007009Y013019D02*
X004150Y013019D01*
X004156Y013177D02*
X007168Y013177D01*
X007326Y013336D02*
X004315Y013336D01*
X004473Y013494D02*
X007485Y013494D01*
X007643Y013653D02*
X004632Y013653D01*
X004790Y013811D02*
X007802Y013811D01*
X008085Y014128D02*
X007268Y014128D01*
X007249Y014113D02*
X007319Y014168D01*
X007382Y014231D01*
X007437Y014301D01*
X007481Y014379D01*
X007515Y014461D01*
X007538Y014547D01*
X007550Y014635D01*
X007550Y014642D01*
X006908Y014642D01*
X006908Y014000D01*
X006915Y014000D01*
X007003Y014012D01*
X007089Y014035D01*
X007171Y014069D01*
X007249Y014113D01*
X007425Y014287D02*
X008085Y014287D01*
X008085Y014445D02*
X007509Y014445D01*
X007546Y014604D02*
X008154Y014604D01*
X008149Y014762D02*
X007545Y014762D01*
X007506Y014921D02*
X008085Y014921D01*
X008085Y015079D02*
X007421Y015079D01*
X007260Y015238D02*
X008085Y015238D01*
X009206Y014604D02*
X009258Y014604D01*
X009603Y014604D02*
X009757Y014604D01*
X009757Y014615D02*
X009757Y014198D01*
X010215Y014198D01*
X010215Y014459D01*
X010203Y014505D01*
X010179Y014546D01*
X010145Y014579D01*
X010104Y014603D01*
X010059Y014615D01*
X009757Y014615D01*
X009757Y014445D02*
X009603Y014445D01*
X009603Y014287D02*
X009757Y014287D01*
X009757Y014128D02*
X010820Y014128D01*
X010820Y013970D02*
X010215Y013970D01*
X010215Y013811D02*
X010820Y013811D01*
X010820Y013653D02*
X010130Y013653D01*
X009757Y013653D02*
X009603Y013653D01*
X009603Y013811D02*
X009757Y013811D01*
X009757Y013970D02*
X009603Y013970D01*
X009230Y013653D02*
X009222Y013653D01*
X010215Y014287D02*
X010820Y014287D01*
X010820Y014445D02*
X010215Y014445D01*
X010102Y014604D02*
X010820Y014604D01*
X010820Y014762D02*
X010211Y014762D01*
X010275Y014921D02*
X010820Y014921D01*
X010820Y015079D02*
X010275Y015079D01*
X010275Y015238D02*
X010820Y015238D01*
X010820Y015396D02*
X010275Y015396D01*
X010275Y015555D02*
X010820Y015555D01*
X010820Y015713D02*
X010216Y015713D01*
X009990Y015872D02*
X010870Y015872D01*
X011021Y016030D02*
X009839Y016030D01*
X009681Y016189D02*
X011179Y016189D01*
X011338Y016347D02*
X009522Y016347D01*
X009335Y016506D02*
X011496Y016506D01*
X011205Y016664D02*
X005711Y016664D01*
X005833Y016823D02*
X010957Y016823D01*
X010799Y016981D02*
X005899Y016981D01*
X005920Y017140D02*
X010702Y017140D01*
X010625Y017298D02*
X005920Y017298D01*
X005866Y017457D02*
X010583Y017457D01*
X010563Y017615D02*
X005791Y017615D01*
X005633Y017774D02*
X010563Y017774D01*
X010591Y017932D02*
X003269Y017932D01*
X003297Y017774D02*
X004727Y017774D01*
X004569Y017615D02*
X003297Y017615D01*
X003277Y017457D02*
X004494Y017457D01*
X004440Y017298D02*
X003235Y017298D01*
X003693Y017140D02*
X004440Y017140D01*
X004461Y016981D02*
X003925Y016981D01*
X004051Y016823D02*
X004527Y016823D01*
X004649Y016664D02*
X004116Y016664D01*
X002942Y015872D02*
X000360Y015872D01*
X000360Y016030D02*
X002783Y016030D01*
X002711Y016189D02*
X000360Y016189D01*
X000360Y016347D02*
X002660Y016347D01*
X002660Y016506D02*
X000360Y016506D01*
X000360Y016664D02*
X001705Y016664D01*
X001457Y016823D02*
X000360Y016823D01*
X000360Y016981D02*
X001299Y016981D01*
X001202Y017140D02*
X000360Y017140D01*
X000360Y017298D02*
X001125Y017298D01*
X001083Y017457D02*
X000360Y017457D01*
X000360Y017615D02*
X001063Y017615D01*
X001063Y017774D02*
X000360Y017774D01*
X000360Y017932D02*
X001091Y017932D01*
X001133Y018091D02*
X000360Y018091D01*
X000360Y018249D02*
X001218Y018249D01*
X001327Y018408D02*
X000360Y018408D01*
X000360Y018566D02*
X001486Y018566D01*
X001761Y018725D02*
X000360Y018725D01*
X000360Y018883D02*
X019500Y018883D01*
X019500Y018725D02*
X012099Y018725D01*
X012374Y018566D02*
X019500Y018566D01*
X019500Y018408D02*
X012533Y018408D01*
X012642Y018249D02*
X019500Y018249D01*
X019500Y018091D02*
X012727Y018091D01*
X012769Y017932D02*
X019500Y017932D01*
X019500Y017774D02*
X015133Y017774D01*
X015099Y017807D02*
X014827Y017920D01*
X014533Y017920D01*
X014261Y017807D01*
X014053Y017599D01*
X013940Y017327D01*
X013940Y017033D01*
X014053Y016761D01*
X014261Y016553D01*
X014533Y016440D01*
X014827Y016440D01*
X015099Y016553D01*
X015307Y016761D01*
X015420Y017033D01*
X015420Y017327D01*
X015307Y017599D01*
X015099Y017807D01*
X015291Y017615D02*
X019500Y017615D01*
X019500Y017457D02*
X015366Y017457D01*
X015420Y017298D02*
X019500Y017298D01*
X019500Y017140D02*
X015420Y017140D01*
X015399Y016981D02*
X019500Y016981D01*
X019500Y016823D02*
X015333Y016823D01*
X015211Y016664D02*
X019500Y016664D01*
X019500Y016506D02*
X014985Y016506D01*
X014375Y016506D02*
X013640Y016506D01*
X013640Y016347D02*
X019500Y016347D01*
X019500Y016189D02*
X013589Y016189D01*
X013517Y016030D02*
X019500Y016030D01*
X019500Y015872D02*
X013358Y015872D01*
X013616Y016664D02*
X014149Y016664D01*
X014027Y016823D02*
X013551Y016823D01*
X013425Y016981D02*
X013961Y016981D01*
X013940Y017140D02*
X013193Y017140D01*
X012735Y017298D02*
X013940Y017298D01*
X013994Y017457D02*
X012777Y017457D01*
X012797Y017615D02*
X014069Y017615D01*
X014227Y017774D02*
X012797Y017774D01*
X011261Y018725D02*
X002599Y018725D01*
X002874Y018566D02*
X010986Y018566D01*
X010827Y018408D02*
X003033Y018408D01*
X003142Y018249D02*
X010718Y018249D01*
X010633Y018091D02*
X003227Y018091D01*
X002684Y016664D02*
X002655Y016664D01*
X002475Y015396D02*
X000360Y015396D01*
X000360Y015238D02*
X002191Y015238D01*
X002044Y015079D02*
X000360Y015079D01*
X000360Y014921D02*
X001979Y014921D01*
X001940Y014762D02*
X000360Y014762D01*
X000360Y014604D02*
X001940Y014604D01*
X001976Y014445D02*
X000360Y014445D01*
X000360Y014287D02*
X002042Y014287D01*
X002185Y014128D02*
X000360Y014128D01*
X000360Y013970D02*
X002462Y013970D01*
X004150Y012860D02*
X004888Y012860D01*
X004655Y012702D02*
X004112Y012702D01*
X004047Y012543D02*
X004529Y012543D01*
X004464Y012385D02*
X003901Y012385D01*
X003620Y012226D02*
X004440Y012226D01*
X004244Y011082D02*
X004244Y010510D01*
X004084Y010510D01*
X004084Y010350D01*
X003512Y010350D01*
X003512Y009934D01*
X003524Y009888D01*
X003548Y009847D01*
X003581Y009814D01*
X003622Y009790D01*
X003668Y009778D01*
X004084Y009778D01*
X004084Y010350D01*
X004244Y010350D01*
X004244Y009778D01*
X004660Y009778D01*
X004706Y009790D01*
X004747Y009814D01*
X004781Y009847D01*
X004804Y009888D01*
X004817Y009934D01*
X004817Y010350D01*
X004244Y010350D01*
X004244Y010510D01*
X004817Y010510D01*
X004817Y010926D01*
X004804Y010972D01*
X004781Y011013D01*
X004747Y011046D01*
X004706Y011070D01*
X004660Y011082D01*
X004244Y011082D01*
X004244Y010958D02*
X004084Y010958D01*
X004084Y011082D02*
X003668Y011082D01*
X003622Y011070D01*
X003581Y011046D01*
X003548Y011013D01*
X003524Y010972D01*
X003512Y010926D01*
X003512Y010510D01*
X004084Y010510D01*
X004084Y011082D01*
X004084Y010800D02*
X004244Y010800D01*
X004244Y010641D02*
X004084Y010641D01*
X004084Y010483D02*
X002908Y010483D01*
X002908Y010641D02*
X003512Y010641D01*
X003512Y010800D02*
X002908Y010800D01*
X002905Y010958D02*
X003520Y010958D01*
X003512Y010324D02*
X002908Y010324D01*
X002908Y010166D02*
X003512Y010166D01*
X003512Y010007D02*
X002908Y010007D01*
X002883Y009849D02*
X003547Y009849D01*
X004084Y009849D02*
X004244Y009849D01*
X004244Y010007D02*
X004084Y010007D01*
X004084Y010166D02*
X004244Y010166D01*
X004244Y010324D02*
X004084Y010324D01*
X004244Y010483D02*
X005820Y010483D01*
X005820Y010641D02*
X004817Y010641D01*
X004817Y010800D02*
X005820Y010800D01*
X005820Y010958D02*
X004808Y010958D01*
X004817Y010324D02*
X005820Y010324D01*
X005820Y010166D02*
X005538Y010166D01*
X005322Y010166D02*
X004817Y010166D01*
X004817Y010007D02*
X005064Y010007D01*
X004969Y009849D02*
X004782Y009849D01*
X004940Y009690D02*
X001699Y009690D01*
X001541Y009532D02*
X004961Y009532D01*
X005024Y009373D02*
X001540Y009373D01*
X001540Y009215D02*
X002187Y009215D01*
X001944Y009056D02*
X001540Y009056D01*
X001540Y008898D02*
X001844Y008898D01*
X001800Y008739D02*
X001540Y008739D01*
X001540Y008581D02*
X001800Y008581D01*
X001861Y008422D02*
X001540Y008422D01*
X001540Y008264D02*
X001985Y008264D01*
X002094Y008105D02*
X001540Y008105D01*
X001540Y007947D02*
X001936Y007947D01*
X001871Y007788D02*
X001540Y007788D01*
X001540Y007630D02*
X001862Y007630D01*
X001905Y007471D02*
X001540Y007471D01*
X001540Y007313D02*
X002020Y007313D01*
X002042Y007154D02*
X001540Y007154D01*
X000820Y007154D02*
X000360Y007154D01*
X000360Y006996D02*
X000820Y006996D01*
X000820Y006837D02*
X000360Y006837D01*
X000360Y006679D02*
X000820Y006679D01*
X000820Y006520D02*
X000360Y006520D01*
X000360Y006362D02*
X000820Y006362D01*
X000820Y006203D02*
X000360Y006203D01*
X000360Y006045D02*
X000820Y006045D01*
X000820Y005886D02*
X000360Y005886D01*
X000360Y005728D02*
X000820Y005728D01*
X000820Y005569D02*
X000360Y005569D01*
X000360Y005411D02*
X000820Y005411D01*
X000820Y005252D02*
X000360Y005252D01*
X000360Y005094D02*
X000820Y005094D01*
X000820Y004935D02*
X000360Y004935D01*
X000360Y004777D02*
X000820Y004777D01*
X000820Y004618D02*
X000360Y004618D01*
X000360Y004460D02*
X000820Y004460D01*
X000820Y004301D02*
X000360Y004301D01*
X000360Y004143D02*
X000820Y004143D01*
X000872Y003984D02*
X000360Y003984D01*
X000360Y003826D02*
X001025Y003826D01*
X001184Y003667D02*
X000360Y003667D01*
X000360Y003509D02*
X001342Y003509D01*
X001536Y003350D02*
X000360Y003350D01*
X000360Y003192D02*
X001697Y003192D01*
X001749Y003221D02*
X001494Y003074D01*
X001286Y002866D01*
X001139Y002611D01*
X001063Y002327D01*
X001063Y002033D01*
X001139Y001749D01*
X001286Y001494D01*
X001494Y001286D01*
X001749Y001139D01*
X002033Y001063D01*
X002327Y001063D01*
X002611Y001139D01*
X002866Y001286D01*
X003074Y001494D01*
X003221Y001749D01*
X003297Y002033D01*
X003297Y002327D01*
X003221Y002611D01*
X003074Y002866D01*
X002866Y003074D01*
X002611Y003221D01*
X002327Y003297D01*
X002033Y003297D01*
X001749Y003221D01*
X001453Y003033D02*
X000360Y003033D01*
X000360Y002875D02*
X001294Y002875D01*
X001199Y002716D02*
X000360Y002716D01*
X000360Y002558D02*
X001124Y002558D01*
X001082Y002399D02*
X000360Y002399D01*
X000360Y002241D02*
X001063Y002241D01*
X001063Y002082D02*
X000360Y002082D01*
X000360Y001924D02*
X001092Y001924D01*
X001134Y001765D02*
X000360Y001765D01*
X000360Y001607D02*
X001221Y001607D01*
X001332Y001448D02*
X000360Y001448D01*
X000360Y001290D02*
X001490Y001290D01*
X001777Y001131D02*
X000360Y001131D01*
X000360Y000973D02*
X011588Y000973D01*
X011604Y001924D02*
X011540Y001924D01*
X011540Y002082D02*
X012880Y002082D01*
X012880Y002241D02*
X011540Y002241D01*
X011540Y002399D02*
X012880Y002399D01*
X012880Y002558D02*
X011540Y002558D01*
X011540Y002716D02*
X012724Y002716D01*
X012429Y002875D02*
X011540Y002875D01*
X011540Y003033D02*
X012278Y003033D01*
X012212Y003192D02*
X011540Y003192D01*
X011540Y003350D02*
X012170Y003350D01*
X012170Y003509D02*
X011540Y003509D01*
X011540Y003667D02*
X012203Y003667D01*
X012269Y003826D02*
X011540Y003826D01*
X011540Y003984D02*
X012407Y003984D01*
X011986Y004460D02*
X011540Y004460D01*
X011540Y004618D02*
X011695Y004618D01*
X011546Y004777D02*
X011540Y004777D01*
X010820Y004777D02*
X010030Y004777D01*
X010040Y004618D02*
X010820Y004618D01*
X010820Y004460D02*
X010040Y004460D01*
X010040Y004301D02*
X010820Y004301D01*
X010820Y004143D02*
X010040Y004143D01*
X010040Y003984D02*
X010820Y003984D01*
X010820Y003826D02*
X010040Y003826D01*
X010040Y003667D02*
X010820Y003667D01*
X010820Y003509D02*
X010040Y003509D01*
X010040Y003350D02*
X010820Y003350D01*
X010820Y003192D02*
X010040Y003192D01*
X010040Y003033D02*
X010820Y003033D01*
X010820Y002875D02*
X010040Y002875D01*
X010040Y002716D02*
X010820Y002716D01*
X010820Y002558D02*
X010040Y002558D01*
X010040Y002399D02*
X010820Y002399D01*
X010481Y002241D02*
X010040Y002241D01*
X010029Y002082D02*
X010390Y002082D01*
X010390Y001924D02*
X009933Y001924D01*
X009774Y001765D02*
X010390Y001765D01*
X010394Y001607D02*
X009616Y001607D01*
X009457Y001448D02*
X010390Y001448D01*
X010390Y001290D02*
X009299Y001290D01*
X009140Y001131D02*
X010470Y001131D01*
X009320Y002329D02*
X008910Y001919D01*
X008910Y001930D01*
X008910Y002074D01*
X008898Y002119D01*
X008874Y002161D01*
X008841Y002194D01*
X008799Y002218D01*
X008754Y002230D01*
X008430Y002230D01*
X008430Y001930D01*
X008430Y001930D01*
X008910Y001930D01*
X008430Y001930D01*
X008430Y001930D01*
X008430Y001930D01*
X007950Y001930D01*
X007950Y002074D01*
X007962Y002119D01*
X007986Y002161D01*
X008019Y002194D01*
X008061Y002218D01*
X008106Y002230D01*
X008430Y002230D01*
X008430Y001930D01*
X007950Y001930D01*
X007950Y001790D01*
X006579Y001790D01*
X006040Y002329D01*
X006040Y002516D01*
X006045Y002527D01*
X006045Y003333D01*
X006040Y003344D01*
X006040Y004252D01*
X005985Y004384D01*
X005884Y004485D01*
X005549Y004820D01*
X006002Y004820D01*
X006134Y004875D01*
X006820Y005561D01*
X006820Y005538D01*
X006808Y005533D01*
X006740Y005466D01*
X006704Y005377D01*
X006704Y004809D01*
X006740Y004721D01*
X006782Y004680D01*
X006740Y004639D01*
X006704Y004551D01*
X006704Y003983D01*
X006740Y003894D01*
X006808Y003827D01*
X006820Y003822D01*
X006820Y003730D01*
X006799Y003710D01*
X006763Y003621D01*
X006763Y003250D01*
X006799Y003162D01*
X006834Y003127D01*
X006823Y003086D01*
X006823Y002924D01*
X006823Y002763D01*
X006835Y002717D01*
X006859Y002676D01*
X006892Y002642D01*
X006933Y002619D01*
X006979Y002606D01*
X007180Y002606D01*
X007381Y002606D01*
X007427Y002619D01*
X007468Y002642D01*
X007501Y002676D01*
X007525Y002717D01*
X007537Y002763D01*
X007537Y002924D01*
X007180Y002924D01*
X007180Y002606D01*
X007180Y002924D01*
X007180Y002924D01*
X006823Y002924D01*
X007180Y002924D01*
X007180Y002924D01*
X007180Y002924D01*
X007537Y002924D01*
X007537Y003086D01*
X007526Y003127D01*
X007561Y003162D01*
X007597Y003250D01*
X007597Y003621D01*
X007561Y003710D01*
X007540Y003730D01*
X007540Y003822D01*
X007552Y003827D01*
X007620Y003894D01*
X007656Y003983D01*
X007656Y004551D01*
X007620Y004639D01*
X007578Y004680D01*
X007620Y004721D01*
X007656Y004809D01*
X007656Y005377D01*
X007620Y005466D01*
X007552Y005533D01*
X007540Y005538D01*
X007540Y005836D01*
X007634Y005875D01*
X007735Y005976D01*
X008084Y006325D01*
X008125Y006226D01*
X008320Y006031D01*
X008320Y005538D01*
X008308Y005533D01*
X008240Y005466D01*
X008204Y005377D01*
X008204Y004809D01*
X008240Y004721D01*
X008282Y004680D01*
X008240Y004639D01*
X008204Y004551D01*
X008204Y003983D01*
X008240Y003894D01*
X008308Y003827D01*
X008320Y003822D01*
X008320Y003730D01*
X008299Y003710D01*
X008263Y003621D01*
X008263Y003250D01*
X008299Y003162D01*
X008334Y003127D01*
X008323Y003086D01*
X008323Y002924D01*
X008323Y002763D01*
X008335Y002717D01*
X008359Y002676D01*
X008392Y002642D01*
X008433Y002619D01*
X008479Y002606D01*
X008680Y002606D01*
X008881Y002606D01*
X008927Y002619D01*
X008968Y002642D01*
X009001Y002676D01*
X009025Y002717D01*
X009037Y002763D01*
X009037Y002924D01*
X008680Y002924D01*
X008680Y002606D01*
X008680Y002924D01*
X008680Y002924D01*
X008680Y002924D01*
X008323Y002924D01*
X008680Y002924D01*
X008680Y002924D01*
X009037Y002924D01*
X009037Y003086D01*
X009026Y003127D01*
X009061Y003162D01*
X009097Y003250D01*
X009097Y003621D01*
X009061Y003710D01*
X009040Y003730D01*
X009040Y003822D01*
X009052Y003827D01*
X009120Y003894D01*
X009156Y003983D01*
X009156Y004551D01*
X009120Y004639D01*
X009078Y004680D01*
X009120Y004721D01*
X009123Y004728D01*
X009320Y004531D01*
X009320Y002329D01*
X009320Y002399D02*
X006040Y002399D01*
X006045Y002558D02*
X009320Y002558D01*
X009320Y002716D02*
X009024Y002716D01*
X009037Y002875D02*
X009320Y002875D01*
X009320Y003033D02*
X009037Y003033D01*
X009073Y003192D02*
X009320Y003192D01*
X009320Y003350D02*
X009097Y003350D01*
X009097Y003509D02*
X009320Y003509D01*
X009320Y003667D02*
X009078Y003667D01*
X009049Y003826D02*
X009320Y003826D01*
X009320Y003984D02*
X009156Y003984D01*
X009156Y004143D02*
X009320Y004143D01*
X009320Y004301D02*
X009156Y004301D01*
X009156Y004460D02*
X009320Y004460D01*
X009233Y004618D02*
X009128Y004618D01*
X009617Y005252D02*
X010820Y005252D01*
X010820Y005094D02*
X009776Y005094D01*
X009934Y004935D02*
X010820Y004935D01*
X010820Y005411D02*
X009459Y005411D01*
X009040Y005569D02*
X010820Y005569D01*
X010820Y005728D02*
X009040Y005728D01*
X009040Y005886D02*
X010820Y005886D01*
X010820Y006045D02*
X009040Y006045D01*
X009040Y006203D02*
X010820Y006203D01*
X010866Y006362D02*
X008994Y006362D01*
X008849Y006520D02*
X011011Y006520D01*
X011169Y006679D02*
X010188Y006679D01*
X010346Y006837D02*
X011328Y006837D01*
X012772Y008422D02*
X019500Y008422D01*
X019500Y008581D02*
X012730Y008581D01*
X012648Y008739D02*
X019500Y008739D01*
X019500Y008898D02*
X012543Y008898D01*
X012384Y009056D02*
X019500Y009056D01*
X019500Y009215D02*
X012123Y009215D01*
X012041Y009532D02*
X019500Y009532D01*
X019500Y009690D02*
X012199Y009690D01*
X012358Y009849D02*
X019500Y009849D01*
X019500Y010007D02*
X012498Y010007D01*
X012735Y010166D02*
X019500Y010166D01*
X019500Y010324D02*
X012775Y010324D01*
X012775Y010483D02*
X019500Y010483D01*
X019500Y010641D02*
X018115Y010641D01*
X018111Y010639D02*
X018366Y010786D01*
X018574Y010994D01*
X018721Y011249D01*
X018797Y011533D01*
X018797Y011827D01*
X018721Y012111D01*
X018574Y012366D01*
X018366Y012574D01*
X018111Y012721D01*
X017827Y012797D01*
X017533Y012797D01*
X017249Y012721D01*
X016994Y012574D01*
X016786Y012366D01*
X016639Y012111D01*
X016563Y011827D01*
X016563Y011533D01*
X016639Y011249D01*
X016786Y010994D01*
X016994Y010786D01*
X017249Y010639D01*
X017533Y010563D01*
X017827Y010563D01*
X018111Y010639D01*
X018380Y010800D02*
X019500Y010800D01*
X019500Y010958D02*
X018538Y010958D01*
X018645Y011117D02*
X019500Y011117D01*
X019500Y011275D02*
X018728Y011275D01*
X018771Y011434D02*
X019500Y011434D01*
X019500Y011592D02*
X018797Y011592D01*
X018797Y011751D02*
X019500Y011751D01*
X019500Y011909D02*
X018776Y011909D01*
X018733Y012068D02*
X019500Y012068D01*
X019500Y012226D02*
X018655Y012226D01*
X018556Y012385D02*
X019500Y012385D01*
X019500Y012543D02*
X018397Y012543D01*
X018146Y012702D02*
X019500Y012702D01*
X019500Y012860D02*
X014972Y012860D01*
X015099Y012807D02*
X014827Y012920D01*
X014533Y012920D01*
X014261Y012807D01*
X014053Y012599D01*
X013940Y012327D01*
X013940Y012033D01*
X014053Y011761D01*
X014261Y011553D01*
X014533Y011440D01*
X014827Y011440D01*
X015099Y011553D01*
X015307Y011761D01*
X015420Y012033D01*
X015420Y012327D01*
X015307Y012599D01*
X015099Y012807D01*
X015205Y012702D02*
X017214Y012702D01*
X016963Y012543D02*
X015331Y012543D01*
X015396Y012385D02*
X016804Y012385D01*
X016705Y012226D02*
X015420Y012226D01*
X015420Y012068D02*
X016627Y012068D01*
X016584Y011909D02*
X015369Y011909D01*
X015297Y011751D02*
X016563Y011751D01*
X016563Y011592D02*
X015139Y011592D01*
X014221Y011592D02*
X012775Y011592D01*
X012775Y011434D02*
X016589Y011434D01*
X016632Y011275D02*
X012724Y011275D01*
X012693Y011117D02*
X016715Y011117D01*
X016822Y010958D02*
X012775Y010958D01*
X012775Y010800D02*
X016980Y010800D01*
X017245Y010641D02*
X012775Y010641D01*
X012775Y011751D02*
X014063Y011751D01*
X013991Y011909D02*
X012775Y011909D01*
X012775Y012068D02*
X013940Y012068D01*
X013940Y012226D02*
X013120Y012226D01*
X013401Y012385D02*
X013964Y012385D01*
X014029Y012543D02*
X013547Y012543D01*
X013612Y012702D02*
X014155Y012702D01*
X014388Y012860D02*
X013650Y012860D01*
X013650Y013019D02*
X019500Y013019D01*
X019500Y013177D02*
X013613Y013177D01*
X013547Y013336D02*
X019500Y013336D01*
X019500Y013494D02*
X013402Y013494D01*
X013124Y013653D02*
X019500Y013653D01*
X019500Y013811D02*
X011540Y013811D01*
X011540Y013653D02*
X012696Y013653D01*
X012418Y013494D02*
X011540Y013494D01*
X011540Y013336D02*
X012273Y013336D01*
X012207Y013177D02*
X011540Y013177D01*
X011540Y013019D02*
X012170Y013019D01*
X012170Y012860D02*
X011540Y012860D01*
X011540Y012702D02*
X012162Y012702D01*
X012004Y012543D02*
X011540Y012543D01*
X011540Y012385D02*
X011863Y012385D01*
X011667Y011117D02*
X009145Y011117D01*
X008615Y010641D02*
X011103Y010641D01*
X011103Y010483D02*
X011257Y010483D01*
X011257Y010324D02*
X011103Y010324D01*
X011103Y010166D02*
X011257Y010166D01*
X011029Y010007D02*
X007290Y010007D01*
X007290Y009849D02*
X010839Y009849D01*
X010710Y010166D02*
X007290Y010166D01*
X007316Y010324D02*
X010645Y010324D01*
X011103Y010800D02*
X011257Y010800D01*
X011257Y010958D02*
X011103Y010958D01*
X011880Y009373D02*
X019500Y009373D01*
X016408Y005728D02*
X016332Y005728D01*
X016332Y005569D02*
X016408Y005569D01*
X016408Y005411D02*
X016332Y005411D01*
X016332Y005252D02*
X016408Y005252D01*
X016408Y005094D02*
X016332Y005094D01*
X016332Y004935D02*
X016408Y004935D01*
X016408Y004777D02*
X016332Y004777D01*
X016332Y004618D02*
X016408Y004618D01*
X017197Y003192D02*
X015215Y003192D01*
X015335Y003033D02*
X016953Y003033D01*
X016794Y002875D02*
X015400Y002875D01*
X015420Y002716D02*
X016699Y002716D01*
X016624Y002558D02*
X015420Y002558D01*
X015365Y002399D02*
X016582Y002399D01*
X016563Y002241D02*
X015287Y002241D01*
X015129Y002082D02*
X016563Y002082D01*
X012724Y001924D02*
X012636Y001924D01*
X012675Y001765D02*
X012685Y001765D01*
X012675Y001607D02*
X012685Y001607D01*
X012675Y001448D02*
X012685Y001448D01*
X012675Y001290D02*
X012685Y001290D01*
X012675Y001131D02*
X012685Y001131D01*
X012708Y000973D02*
X012652Y000973D01*
X009231Y002241D02*
X006129Y002241D01*
X006287Y002082D02*
X007952Y002082D01*
X007950Y001924D02*
X006446Y001924D01*
X005903Y001448D02*
X003028Y001448D01*
X003139Y001607D02*
X005744Y001607D01*
X005586Y001765D02*
X003226Y001765D01*
X003268Y001924D02*
X005427Y001924D01*
X005331Y002082D02*
X003297Y002082D01*
X003297Y002241D02*
X005320Y002241D01*
X005012Y002399D02*
X004848Y002399D01*
X004925Y002558D02*
X004935Y002558D01*
X004925Y002716D02*
X004935Y002716D01*
X004925Y002875D02*
X004935Y002875D01*
X004925Y003033D02*
X004935Y003033D01*
X004925Y003192D02*
X004935Y003192D01*
X004918Y003350D02*
X004942Y003350D01*
X005088Y003509D02*
X004772Y003509D01*
X005320Y003667D02*
X004202Y003667D01*
X004044Y003826D02*
X005320Y003826D01*
X005320Y003984D02*
X003885Y003984D01*
X003413Y004301D02*
X005050Y004301D01*
X005208Y004143D02*
X003166Y004143D01*
X002194Y004143D02*
X001727Y004143D01*
X001568Y004301D02*
X001947Y004301D01*
X001845Y004460D02*
X001540Y004460D01*
X001540Y004618D02*
X001800Y004618D01*
X001800Y004777D02*
X001540Y004777D01*
X001540Y004935D02*
X001859Y004935D01*
X001982Y005094D02*
X001540Y005094D01*
X001540Y005252D02*
X001996Y005252D01*
X001885Y005363D02*
X001800Y005569D01*
X001800Y005728D02*
X001540Y005728D01*
X001540Y005886D02*
X001839Y005886D01*
X001933Y006045D02*
X001540Y006045D01*
X001540Y006203D02*
X002048Y006203D01*
X003256Y006180D02*
X003317Y006155D01*
X003475Y005997D01*
X003547Y005822D01*
X003829Y005540D01*
X005781Y005540D01*
X006625Y006384D01*
X006726Y006485D01*
X006858Y006540D01*
X007108Y006540D01*
X007281Y006540D01*
X007311Y006570D01*
X006108Y006570D01*
X005976Y006625D01*
X005875Y006726D01*
X005875Y006726D01*
X005149Y007452D01*
X004410Y007452D01*
X004322Y007488D01*
X004254Y007556D01*
X004218Y007644D01*
X004218Y008320D01*
X003432Y008320D01*
X003317Y008205D01*
X003178Y008148D01*
X003192Y008143D01*
X003262Y008108D01*
X003326Y008061D01*
X003381Y008006D01*
X003428Y007942D01*
X003463Y007872D01*
X003488Y007797D01*
X003500Y007719D01*
X003500Y007700D01*
X002700Y007700D01*
X002700Y007660D01*
X003500Y007660D01*
X003500Y007641D01*
X003488Y007563D01*
X003463Y007488D01*
X003428Y007418D01*
X003381Y007354D01*
X003326Y007299D01*
X003262Y007252D01*
X003192Y007217D01*
X003178Y007212D01*
X003317Y007155D01*
X003475Y006997D01*
X003560Y006791D01*
X003560Y006569D01*
X003475Y006363D01*
X003317Y006205D01*
X003256Y006180D01*
X003312Y006203D02*
X004850Y006203D01*
X004850Y006276D02*
X004850Y006116D01*
X004278Y006116D01*
X004278Y005700D01*
X004290Y005654D01*
X004314Y005613D01*
X004347Y005579D01*
X004388Y005556D01*
X004434Y005543D01*
X004850Y005543D01*
X004850Y006116D01*
X005010Y006116D01*
X005010Y006276D01*
X004850Y006276D01*
X004850Y006848D01*
X004434Y006848D01*
X004388Y006836D01*
X004347Y006812D01*
X004314Y006779D01*
X004290Y006738D01*
X004278Y006692D01*
X004278Y006276D01*
X004850Y006276D01*
X004850Y006362D02*
X005010Y006362D01*
X005010Y006276D02*
X005010Y006848D01*
X005426Y006848D01*
X005472Y006836D01*
X005513Y006812D01*
X005546Y006779D01*
X005570Y006738D01*
X005582Y006692D01*
X005582Y006276D01*
X005010Y006276D01*
X005010Y006203D02*
X006444Y006203D01*
X006602Y006362D02*
X005582Y006362D01*
X005582Y006520D02*
X006810Y006520D01*
X006285Y006045D02*
X005582Y006045D01*
X005582Y006116D02*
X005010Y006116D01*
X005010Y005543D01*
X005426Y005543D01*
X005472Y005556D01*
X005513Y005579D01*
X005546Y005613D01*
X005570Y005654D01*
X005582Y005700D01*
X005582Y006116D01*
X005582Y005886D02*
X006127Y005886D01*
X005968Y005728D02*
X005582Y005728D01*
X005495Y005569D02*
X005810Y005569D01*
X006353Y005094D02*
X006704Y005094D01*
X006704Y005252D02*
X006511Y005252D01*
X006670Y005411D02*
X006718Y005411D01*
X006704Y004935D02*
X006194Y004935D01*
X005751Y004618D02*
X006732Y004618D01*
X006717Y004777D02*
X005593Y004777D01*
X005910Y004460D02*
X006704Y004460D01*
X006704Y004301D02*
X006020Y004301D01*
X006040Y004143D02*
X006704Y004143D01*
X006704Y003984D02*
X006040Y003984D01*
X006040Y003826D02*
X006811Y003826D01*
X006782Y003667D02*
X006040Y003667D01*
X006040Y003509D02*
X006763Y003509D01*
X006763Y003350D02*
X006040Y003350D01*
X006045Y003192D02*
X006787Y003192D01*
X006823Y003033D02*
X006045Y003033D01*
X006045Y002875D02*
X006823Y002875D01*
X006836Y002716D02*
X006045Y002716D01*
X007180Y002716D02*
X007180Y002716D01*
X007180Y002875D02*
X007180Y002875D01*
X007537Y002875D02*
X008323Y002875D01*
X008323Y003033D02*
X007537Y003033D01*
X007573Y003192D02*
X008287Y003192D01*
X008263Y003350D02*
X007597Y003350D01*
X007597Y003509D02*
X008263Y003509D01*
X008282Y003667D02*
X007578Y003667D01*
X007549Y003826D02*
X008311Y003826D01*
X008204Y003984D02*
X007656Y003984D01*
X007656Y004143D02*
X008204Y004143D01*
X008204Y004301D02*
X007656Y004301D01*
X007656Y004460D02*
X008204Y004460D01*
X008232Y004618D02*
X007628Y004618D01*
X007643Y004777D02*
X008217Y004777D01*
X008204Y004935D02*
X007656Y004935D01*
X007656Y005094D02*
X008204Y005094D01*
X008204Y005252D02*
X007656Y005252D01*
X007642Y005411D02*
X008218Y005411D01*
X008320Y005569D02*
X007540Y005569D01*
X007540Y005728D02*
X008320Y005728D01*
X008320Y005886D02*
X007645Y005886D01*
X007804Y006045D02*
X008306Y006045D01*
X008148Y006203D02*
X007962Y006203D01*
X005922Y006679D02*
X005582Y006679D01*
X005468Y006837D02*
X005764Y006837D01*
X005605Y006996D02*
X003475Y006996D01*
X003541Y006837D02*
X004392Y006837D01*
X004278Y006679D02*
X003560Y006679D01*
X003540Y006520D02*
X004278Y006520D01*
X004278Y006362D02*
X003473Y006362D01*
X003427Y006045D02*
X004278Y006045D01*
X004278Y005886D02*
X003521Y005886D01*
X003642Y005728D02*
X004278Y005728D01*
X004365Y005569D02*
X003800Y005569D01*
X004850Y005569D02*
X005010Y005569D01*
X005010Y005728D02*
X004850Y005728D01*
X004850Y005886D02*
X005010Y005886D01*
X005010Y006045D02*
X004850Y006045D01*
X004850Y006520D02*
X005010Y006520D01*
X005010Y006679D02*
X004850Y006679D01*
X004850Y006837D02*
X005010Y006837D01*
X005447Y007154D02*
X003318Y007154D01*
X003340Y007313D02*
X005288Y007313D01*
X004363Y007471D02*
X003455Y007471D01*
X003498Y007630D02*
X004224Y007630D01*
X004218Y007788D02*
X003489Y007788D01*
X003424Y007947D02*
X004218Y007947D01*
X004218Y008105D02*
X003266Y008105D01*
X003375Y008264D02*
X004218Y008264D01*
X004706Y008898D02*
X005070Y008898D01*
X005070Y009056D02*
X003416Y009056D01*
X003173Y009215D02*
X005070Y009215D01*
X005796Y010007D02*
X005820Y010007D01*
X005820Y011117D02*
X002779Y011117D01*
X001613Y011117D02*
X000360Y011117D01*
X000360Y011275D02*
X005820Y011275D01*
X007411Y010800D02*
X007480Y010800D01*
X007420Y010641D02*
X007745Y010641D01*
X006908Y014128D02*
X006832Y014128D01*
X006832Y014287D02*
X006908Y014287D01*
X006908Y014445D02*
X006832Y014445D01*
X006832Y014604D02*
X006908Y014604D01*
X011540Y014287D02*
X011542Y014287D01*
X011540Y014128D02*
X011685Y014128D01*
X011540Y013970D02*
X011962Y013970D01*
X012398Y013970D02*
X019500Y013970D01*
X019500Y014128D02*
X016768Y014128D01*
X016749Y014113D02*
X016819Y014168D01*
X016882Y014231D01*
X016937Y014301D01*
X016981Y014379D01*
X017015Y014461D01*
X017038Y014547D01*
X017050Y014635D01*
X017050Y014642D01*
X016408Y014642D01*
X016408Y014718D01*
X017050Y014718D01*
X017050Y014725D01*
X017038Y014813D01*
X017015Y014899D01*
X016981Y014981D01*
X016937Y015059D01*
X016882Y015129D01*
X016819Y015192D01*
X016749Y015247D01*
X016671Y015291D01*
X016589Y015325D01*
X016503Y015348D01*
X016415Y015360D01*
X016408Y015360D01*
X016408Y014718D01*
X016332Y014718D01*
X016332Y014642D01*
X016408Y014642D01*
X016408Y014000D01*
X016415Y014000D01*
X016503Y014012D01*
X016589Y014035D01*
X016671Y014069D01*
X016749Y014113D01*
X016925Y014287D02*
X019500Y014287D01*
X019500Y014445D02*
X017009Y014445D01*
X017046Y014604D02*
X019500Y014604D01*
X019500Y014762D02*
X017045Y014762D01*
X017006Y014921D02*
X019500Y014921D01*
X019500Y015079D02*
X016921Y015079D01*
X016760Y015238D02*
X019500Y015238D01*
X019500Y015396D02*
X012385Y015396D01*
X012669Y015238D02*
X015980Y015238D01*
X015991Y015247D02*
X015921Y015192D01*
X015858Y015129D01*
X015803Y015059D01*
X015759Y014981D01*
X015725Y014899D01*
X015702Y014813D01*
X015690Y014725D01*
X015690Y014718D01*
X016332Y014718D01*
X016332Y015360D01*
X016325Y015360D01*
X016237Y015348D01*
X016151Y015325D01*
X016069Y015291D01*
X015991Y015247D01*
X015819Y015079D02*
X012816Y015079D01*
X012881Y014921D02*
X015734Y014921D01*
X015695Y014762D02*
X012920Y014762D01*
X012920Y014604D02*
X015694Y014604D01*
X015690Y014635D02*
X015702Y014547D01*
X015725Y014461D01*
X015759Y014379D01*
X015803Y014301D01*
X015858Y014231D01*
X015921Y014168D01*
X015991Y014113D01*
X016069Y014069D01*
X016151Y014035D01*
X016237Y014012D01*
X016325Y014000D01*
X016332Y014000D01*
X016332Y014642D01*
X015690Y014642D01*
X015690Y014635D01*
X015731Y014445D02*
X012884Y014445D01*
X012818Y014287D02*
X015815Y014287D01*
X015972Y014128D02*
X012675Y014128D01*
X011544Y015079D02*
X011540Y015079D01*
X011540Y015238D02*
X011691Y015238D01*
X011540Y015396D02*
X011975Y015396D01*
X011722Y015713D02*
X019500Y015713D01*
X019500Y015555D02*
X011564Y015555D01*
X011881Y015872D02*
X012442Y015872D01*
X012283Y016030D02*
X012039Y016030D01*
X016332Y015238D02*
X016408Y015238D01*
X016408Y015079D02*
X016332Y015079D01*
X016332Y014921D02*
X016408Y014921D01*
X016408Y014762D02*
X016332Y014762D01*
X016332Y014604D02*
X016408Y014604D01*
X016408Y014445D02*
X016332Y014445D01*
X016332Y014287D02*
X016408Y014287D01*
X016408Y014128D02*
X016332Y014128D01*
X019500Y019042D02*
X000360Y019042D01*
X000360Y019200D02*
X019500Y019200D01*
X019500Y019359D02*
X000360Y019359D01*
X000360Y010958D02*
X001487Y010958D01*
X001483Y010800D02*
X000360Y010800D01*
X000360Y010641D02*
X001483Y010641D01*
X001473Y010483D02*
X000360Y010483D01*
X000360Y010324D02*
X001315Y010324D01*
X001156Y010166D02*
X000360Y010166D01*
X000360Y010007D02*
X000998Y010007D01*
X000860Y009849D02*
X000360Y009849D01*
X000360Y009690D02*
X000820Y009690D01*
X000820Y009532D02*
X000360Y009532D01*
X000360Y009373D02*
X000820Y009373D01*
X000820Y009215D02*
X000360Y009215D01*
X000360Y009056D02*
X000820Y009056D01*
X000820Y008898D02*
X000360Y008898D01*
X000360Y008739D02*
X000820Y008739D01*
X000820Y008581D02*
X000360Y008581D01*
X000360Y008422D02*
X000820Y008422D01*
X000820Y008264D02*
X000360Y008264D01*
X000360Y008105D02*
X000820Y008105D01*
X000820Y007947D02*
X000360Y007947D01*
X000360Y007788D02*
X000820Y007788D01*
X000820Y007630D02*
X000360Y007630D01*
X000360Y007471D02*
X000820Y007471D01*
X000820Y007313D02*
X000360Y007313D01*
X002663Y003192D02*
X003659Y003192D01*
X003815Y003033D02*
X002907Y003033D01*
X003066Y002875D02*
X003815Y002875D01*
X003815Y002716D02*
X003161Y002716D01*
X003236Y002558D02*
X003815Y002558D01*
X003892Y002399D02*
X003278Y002399D01*
X002870Y001290D02*
X006061Y001290D01*
X006220Y001131D02*
X002583Y001131D01*
X007524Y002716D02*
X008336Y002716D01*
X008680Y002716D02*
X008680Y002716D01*
X008680Y002875D02*
X008680Y002875D01*
X008908Y002082D02*
X009073Y002082D01*
X008914Y001924D02*
X008910Y001924D01*
X008430Y002082D02*
X008430Y002082D01*
X011224Y009215D02*
X011237Y009215D01*
M02*
