%
M48
M72
T01C0.0236
T02C0.0400
T03C0.0472
T04C0.1875
%
T01
X3680Y1680
X6680Y2180
X5930Y6180
X5430Y9680
X6930Y10680
X10180Y9680
X10180Y6180
X16180Y1680
X16180Y10680
X17180Y17680
X8180Y17680
X1680Y12680
T02
X2680Y8680
X2680Y7680
X2680Y6680
X2680Y5680
X2680Y4680
T03
X5180Y12180
X3410Y12940
X2680Y14680
X3400Y16460
X5180Y17180
X6870Y14680
X12180Y14680
X12910Y12940
X14680Y12180
X16370Y14680
X14680Y17180
X12900Y16460
X14680Y7680
X12900Y6960
X12180Y5180
X12910Y3440
X14680Y2680
X16370Y5180
T04
X2180Y2180
X8180Y11680
X11680Y8180
X17680Y11680
X11680Y17680
X2180Y17680
X17680Y2180
M30
